<?xml version="1.0" standalone="no"?>
<!DOCTYPE svg PUBLIC "-//W3C//DTD SVG 20010904//EN"
 "http://www.w3.org/TR/2001/REC-SVG-20010904/DTD/svg10.dtd">
<svg version="1.0" xmlns="http://www.w3.org/2000/svg"
 width="700.000000pt" height="700.000000pt" viewBox="0 0 700.000000 700.000000"
 preserveAspectRatio="xMidYMid meet">
<metadata>
Created by potrace 1.14, written by Peter Selinger 2001-2017
</metadata>
<g transform="translate(0.000000,700.000000) scale(0.100000,-0.100000)"
fill="#000000" stroke="none">
<path d="M242 6128 c-9 -9 -12 -237 -12 -965 l0 -953 25 -16 c20 -13 25 -25
25 -55 0 -22 -4 -39 -9 -39 -5 0 -17 -7 -25 -16 -14 -13 -16 -58 -16 -339 l0
-324 25 -19 c20 -16 25 -29 25 -66 0 -25 -4 -46 -9 -46 -5 0 -17 -7 -25 -16
-14 -14 -16 -127 -16 -1093 0 -991 1 -1080 17 -1092 24 -21 6262 -21 6286 0
16 12 17 201 17 2520 0 1937 -3 2510 -12 2519 -17 17 -6279 17 -6296 0z m1538
-153 l0 -55 -720 0 -720 0 0 55 0 55 720 0 720 0 0 -55z m1558 3 l-3 -53 -722
-3 -723 -2 0 55 0 55 726 0 725 0 -3 -52z m1552 -3 l0 -55 -720 0 -720 0 0 55
0 55 720 0 720 0 0 -55z m1550 0 l0 -55 -720 0 -720 0 0 55 0 55 720 0 720 0
0 -55z m-3102 -1127 l2 -358 -725 0 -725 0 0 360 0 360 723 -2 722 -3 3 -357z
m1552 2 l0 -360 -720 0 -720 0 0 360 0 360 720 0 720 0 0 -360z m1550 0 l0
-360 -720 0 -720 0 0 360 0 360 720 0 720 0 0 -360z m-3102 -827 l-3 -358
-722 -3 -723 -2 0 360 0 360 725 0 725 0 -2 -357z m1552 -3 l0 -360 -720 0
-720 0 0 360 0 360 720 0 720 0 0 -360z m1550 0 l0 -360 -720 0 -720 0 0 360
0 360 720 0 720 0 0 -360z m-3100 -825 l0 -355 -725 0 -725 0 0 355 0 355 725
0 725 0 0 -355z m1550 0 l0 -355 -720 0 -720 0 0 355 0 355 720 0 720 0 0
-355z m1550 0 l0 -355 -720 0 -720 0 0 355 0 355 720 0 720 0 0 -355z m-3105
-825 l0 -355 -722 -3 -723 -2 0 360 0 360 723 -2 722 -3 0 -355z m1555 0 l0
-360 -720 0 -720 0 0 360 0 360 720 0 720 0 0 -360z m1550 0 l0 -360 -720 0
-720 0 0 360 0 360 720 0 720 0 0 -360z m-3102 -827 l-3 -358 -720 0 -720 0
-3 358 -2 357 725 0 725 0 -2 -357z m1552 -3 l0 -360 -720 0 -720 0 0 360 0
360 720 0 720 0 0 -360z m1550 0 l0 -360 -720 0 -720 0 0 360 0 360 720 0 720
0 0 -360z"/>
</g>
</svg>
